Coordinates
version=1
nRows=6
nColumns=36
inDegrees=yes

Units are S.I. units (second, meters, Newtons, ...)
If the header above contains a line with 'inDegrees', this indicates whether rotational values are in degrees (yes) or radians (no).

endheader
time	pelvis_tilt	pelvis_list	pelvis_rotation	pelvis_tx	pelvis_ty	pelvis_tz	hip_flexion_r	hip_adduction_r	hip_rotation_r	knee_angle_r	knee_angle_r_beta	ankle_angle_r	subtalar_angle_r	mtp_angle_r	hip_flexion_l	hip_adduction_l	hip_rotation_l	knee_angle_l	knee_angle_l_beta	ankle_angle_l	subtalar_angle_l	mtp_angle_l	lumbar_extension	lumbar_bending	lumbar_rotation	arm_flex_r	arm_add_r	arm_rot_r	elbow_flex_r	pro_sup_r	arm_flex_l	arm_add_l	arm_rot_l	elbow_flex_l	pro_sup_l
     23.00000000	      3.14877703	     -4.39331688	     -3.14163122	     -0.17708416	      0.69717745	     -0.04486529	     67.24099831	     -5.98242270	      1.22375108	     85.65080764	      1.49488860	     22.01392953	      0.64636073	     -7.49999987	     72.18140876	    -14.49686247	      5.37555840	     89.82138389	      1.56767889	     17.42170222	      4.26968949	     -7.49999987	    -28.61948114	      0.22171675	     10.34795001	      3.21274090	    -13.43704356	     -9.21326310	     51.13657995	     93.34475686	     11.98477314	    -12.43368202	      2.02462622	     37.36930664	     91.56077937
     23.01666670	      2.50452315	     -4.27787008	     -2.95451946	     -0.17565050	      0.69740664	     -0.04466894	     68.23545754	     -6.08680750	      1.25532355	     85.84953797	      1.49835710	     22.00518742	      0.82442630	     -7.49999987	     73.19085809	    -14.41946490	      5.34307987	     89.76083482	      1.56662211	     16.97689323	      4.29521719	     -7.49999987	    -28.20687013	     -1.07514185	     10.36233423	      2.92231156	    -13.44289644	     -8.83677496	     52.55841755	     93.62952298	     12.57741714	    -12.71866881	      1.84480480	     37.92294611	     91.77724449
     23.03333330	      2.43345578	     -4.25632119	     -3.10740372	     -0.16251747	      0.69914713	     -0.05096555	     68.21451465	     -5.91788745	      1.44163385	     85.70329265	      1.49580464	     21.96351050	      0.78171107	     -7.49999987	     73.03017567	    -14.54517044	      5.23416629	     89.56750114	      1.56324780	     16.74998339	      4.32324647	     -7.49999987	    -27.63792496	     -2.11668056	     10.85504843	      1.98896103	    -13.64850903	     -9.06883586	     53.70243653	     96.94857849	     12.48617157	    -12.46640034	      1.17425593	     37.45601241	     94.84031502
     23.05000000	      2.65201817	     -4.26319591	     -3.10325056	     -0.16310352	      0.70003425	     -0.05056328	     68.01951900	     -5.91688596	      1.54801734	     85.67321070	      1.49527961	     21.73509766	      1.03105441	     -7.49999987	     72.79968343	    -14.59343826	      5.20413919	     89.54272666	      1.56281540	     16.55290383	      4.18971238	     -7.49999987	    -27.38144559	     -3.05117356	     10.90703851	      1.70058340	    -14.10065827	     -8.16672000	     54.61308265	     97.52577597	     12.39982590	    -12.32626158	      0.81184071	     36.97481250	     95.15397636
     23.06666670	      2.68028934	     -4.33477355	     -3.09343824	     -0.16348573	      0.69953717	     -0.05079848	     68.02278459	     -5.83872923	      1.58985661	     85.81505179	      1.49775520	     21.67599917	      1.17025505	     -7.49999987	     72.84811204	    -14.66765801	      5.27211883	     89.66746656	      1.56499252	     16.63303254	      4.32161443	     -7.49999987	    -27.09310878	     -3.93132456	     10.97245122	      1.30798468	    -14.65604093	     -7.06400306	     56.03964115	     97.34258558	     12.56122634	    -12.16250588	      0.39206865	     36.79695752	     94.47782390
     23.08333330	      2.82045649	     -4.48608557	     -2.95268773	     -0.16367234	      0.70020863	     -0.05085831	     67.88428764	     -5.86627411	      1.48324120	     86.08774542	      1.50251460	     21.89866228	      1.40052352	     -7.49999987	     72.79653152	    -14.65232770	      5.43631209	     89.75327436	      1.56649015	     16.67460137	      4.36876247	     -7.49999987	    -27.26496039	     -4.71639892	     10.98956017	      0.62077607	    -14.77567142	     -7.68659067	     57.95282729	    101.35538555	     12.31575812	    -11.96703305	     -0.99743105	     37.25370444	     98.03513480
